<?xml version="1.0" standalone="no"?>
<!DOCTYPE svg PUBLIC "-//W3C//DTD SVG 20010904//EN"
 "http://www.w3.org/TR/2001/REC-SVG-20010904/DTD/svg10.dtd">
<svg version="1.0" xmlns="http://www.w3.org/2000/svg"
 width="530.000000pt" height="501.000000pt" viewBox="0 0 530.000000 501.000000"
 preserveAspectRatio="xMidYMid meet">

<g transform="translate(0.000000,501.000000) scale(0.100000,-0.100000)"
fill="#000000" stroke="none">
<path d="M2456 4333 c-98 -302 -229 -707 -292 -900 l-115 -353 -952 -2 -952
-3 767 -558 c423 -307 768 -561 768 -565 0 -5 -131 -410 -290 -901 -160 -492
-289 -895 -287 -897 1 -1 346 247 766 552 420 305 769 553 775 550 6 -2 351
-251 766 -554 415 -302 756 -546 758 -542 1 3 -125 400 -282 881 -156 481
-286 883 -290 895 -5 18 92 91 758 575 421 305 765 557 766 562 0 4 -427 7
-948 7 l-948 0 -288 888 c-159 488 -291 893 -295 900 -4 7 -87 -234 -185 -535z
m2170 -1436 c-228 -171 -1083 -784 -1087 -779 -6 7 -259 783 -259 796 0 3 309
6 688 6 l687 -1 -29 -22z"/>
</g>
</svg>
